# xmcd
#
# Track frame offsets:
#	150
#	14593
#	36587
#	57634
#	82916
#	99170
#	120412
#	139954
#	163787
#	182465
#
# Disc length: 2631 seconds
#
# Revision: 1
# Processed by: cddbd v1.5.2PL0 Copyright (c) Steve Scherf et al.
# Submitted via: audiograbber 1.83.01
#
DISCID=810a450a
DTITLE=gary howard - cheeky tracks
DYEAR=2003
DGENRE=schlechte musik
TTITLE0=cheeky Boys
TTITLE1=can`t get you out of my head
TTITLE2=Complicadet
TTITLE3=Down boy
TTITLE4=I´m like a Bird
TTITLE5=Tennage Dirt bag
TTITLE6=slim shady
TTITLE7=thing song
TTITLE8=cos i got high
TTITLE9=give what you get
EXTD=
EXTT0=
EXTT1=
EXTT2=
EXTT3=
EXTT4=
EXTT5=
EXTT6=
EXTT7=
EXTT8=
EXTT9=
PLAYORDER=
